<svg width="410" height="410" viewBox="0 0 410 410" fill="none" xmlns="http://www.w3.org/2000/svg">
<circle cx="205" cy="205" r="205" fill="#282C33"/>
<circle cx="205" cy="205" r="175" fill="#2E333C"/>
<path d="M84.1875 236V231.078L90.5547 229.984V184.945H77.6641L76.5312 192.836H70.75V179.125H118.016V192.836H112.312L111.141 184.945H98.25V229.984L104.617 231.078V236H84.1875ZM121.766 236V231.078L128.133 229.984V199.789L121.766 198.695V193.734H135.008L135.672 199.125L135.75 199.867C136.948 197.706 138.419 196.013 140.164 194.789C141.935 193.565 143.953 192.953 146.219 192.953C147.026 192.953 147.846 193.031 148.68 193.188C149.539 193.318 150.151 193.448 150.516 193.578L149.5 200.727L144.148 200.414C142.117 200.284 140.411 200.753 139.031 201.82C137.651 202.862 136.583 204.268 135.828 206.039V229.984L142.195 231.078V236H121.766ZM168.875 236.82C164.474 236.82 161.128 235.753 158.836 233.617C156.544 231.456 155.398 228.422 155.398 224.516C155.398 221.833 156.128 219.503 157.586 217.523C159.07 215.518 161.206 213.969 163.992 212.875C166.779 211.755 170.112 211.195 173.992 211.195H181.531V207.055C181.531 204.503 180.75 202.523 179.188 201.117C177.651 199.711 175.477 199.008 172.664 199.008C170.893 199.008 169.357 199.229 168.055 199.672C166.753 200.089 165.568 200.674 164.5 201.43L163.68 207.328H157.742V197.641C159.643 196.104 161.857 194.945 164.383 194.164C166.909 193.357 169.708 192.953 172.781 192.953C177.911 192.953 181.935 194.177 184.852 196.625C187.768 199.073 189.227 202.576 189.227 207.133V227.484C189.227 228.031 189.227 228.565 189.227 229.086C189.253 229.607 189.292 230.128 189.344 230.648L193.445 231.078V236H182.391C182.156 234.854 181.974 233.826 181.844 232.914C181.714 232.003 181.622 231.091 181.57 230.18C180.086 232.081 178.224 233.669 175.984 234.945C173.771 236.195 171.401 236.82 168.875 236.82ZM170.008 230.375C172.56 230.375 174.891 229.763 177 228.539C179.109 227.315 180.62 225.844 181.531 224.125V216.469H173.719C170.177 216.469 167.521 217.315 165.75 219.008C163.979 220.701 163.094 222.589 163.094 224.672C163.094 226.521 163.667 227.94 164.812 228.93C165.958 229.893 167.69 230.375 170.008 230.375ZM218.523 236.82C214.695 236.82 211.362 235.935 208.523 234.164C205.685 232.367 203.484 229.88 201.922 226.703C200.359 223.526 199.578 219.854 199.578 215.688V214.047C199.578 210.036 200.333 206.443 201.844 203.266C203.354 200.089 205.529 197.576 208.367 195.727C211.206 193.878 214.591 192.953 218.523 192.953C221.935 192.953 224.917 193.513 227.469 194.633C230.047 195.753 232.208 197.289 233.953 199.242L234.148 209.398H228.133L226.805 202.016C225.919 201.104 224.812 200.375 223.484 199.828C222.156 199.281 220.594 199.008 218.797 199.008C216.505 199.008 214.487 199.685 212.742 201.039C211.023 202.393 209.682 204.203 208.719 206.469C207.755 208.734 207.273 211.26 207.273 214.047V215.688C207.273 218.76 207.716 221.43 208.602 223.695C209.513 225.961 210.802 227.719 212.469 228.969C214.161 230.193 216.167 230.805 218.484 230.805C221.089 230.805 223.25 230.089 224.969 228.656C226.688 227.224 227.742 225.258 228.133 222.758H235.047L235.125 222.992C234.995 225.414 234.279 227.68 232.977 229.789C231.674 231.898 229.812 233.604 227.391 234.906C224.995 236.182 222.039 236.82 218.523 236.82ZM240.75 236V231.078L247.117 229.984V181.117L240.75 180.023V175.062H254.812V229.984L261.18 231.078V236H240.75ZM267.898 236V231.078L272.195 230.57L272.078 230.414L259.852 214.633L263.836 208.5L280.906 230.141L287 231.078V236H267.898ZM254.266 223.773L251.414 217.719L269.773 199.438L269.969 199.203L265.438 198.695V193.734H283.641V198.695L278.211 199.711L254.266 223.773ZM291.727 236V231.078L298.094 229.984V185.18L291.727 184.086V179.125H312.156V184.086L305.789 185.18V229.984L312.156 231.078V236H291.727ZM333.172 236.664C330.047 236.664 327.56 235.753 325.711 233.93C323.888 232.081 322.977 229.138 322.977 225.102V199.438H316.297V193.734H322.977V183.539H330.672V193.734H339.852V199.438H330.672V225.102C330.672 227.133 331.076 228.63 331.883 229.594C332.69 230.557 333.771 231.039 335.125 231.039C336.036 231.039 337.052 230.961 338.172 230.805C339.292 230.622 340.164 230.466 340.789 230.336L341.844 235.375C340.724 235.714 339.344 236.013 337.703 236.273C336.089 236.534 334.578 236.664 333.172 236.664Z" fill="#FFB9B0"/>
</svg>
